<?xml version="1.0" encoding="utf-8"?>
<!-- Generator: Adobe Illustrator 22.0.1, SVG Export Plug-In . SVG Version: 6.00 Build 0)  -->
<svg version="1.1" id="Layer_1" xmlns="http://www.w3.org/2000/svg" xmlns:xlink="http://www.w3.org/1999/xlink" x="0px" y="0px"
	 viewBox="0 0 218 215.9" style="enable-background:new 0 0 218 215.9;" xml:space="preserve">
<style type="text/css">
	.st0{fill:url(#SVGID_1_);}
	.st1{clip-path:url(#SVGID_3_);}
	.st2{opacity:0.46;fill:url(#SVGID_4_);enable-background:new    ;}
	.st3{opacity:0.46;fill:url(#SVGID_5_);enable-background:new    ;}
	.st4{opacity:0.46;fill:url(#SVGID_6_);enable-background:new    ;}
	.st5{opacity:0.46;fill:url(#SVGID_7_);enable-background:new    ;}
	.st6{fill:none;}
	.st7{fill:#173B40;}
	.st8{fill:#FFFFFF;}
	.st9{fill:#51D6E5;}
	.st10{clip-path:url(#SVGID_9_);fill:#173B40;}
</style>
<g>
	
		<linearGradient id="SVGID_1_" gradientUnits="userSpaceOnUse" x1="73.9229" y1="172.3096" x2="140.7493" y2="-11.294" gradientTransform="matrix(1 0 0 -1 0 217)">
		<stop  offset="0" style="stop-color:#2D777F"/>
		<stop  offset="6.450000e-02" style="stop-color:#51D6E5"/>
		<stop  offset="1" style="stop-color:#44B2BF"/>
	</linearGradient>
	<path class="st0" d="M4.7,128.6C-0.8,89.4,148.2,8.4,161.3,15.9c13.1,7.5,49,178.7,23.2,196.2C165.5,225.6,10.2,167.9,4.7,128.6z"
		/>
	<g>
		<g>
			<defs>
				<path id="SVGID_2_" d="M3.7,128.6C-1.8,89.4,148.2,8.4,161.3,15.9c13.1,7.5,49,178.7,23.2,196.2
					C165.5,225.6,9.2,167.9,3.7,128.6z"/>
			</defs>
			<clipPath id="SVGID_3_">
				<use xlink:href="#SVGID_2_"  style="overflow:visible;"/>
			</clipPath>
			<g class="st1">
				
					<linearGradient id="SVGID_4_" gradientUnits="userSpaceOnUse" x1="101.054" y1="168.92" x2="206.547" y2="168.92" gradientTransform="matrix(1 0 0 -1 0 217)">
					<stop  offset="0" style="stop-color:#FFFFFF"/>
					<stop  offset="1" style="stop-color:#FFFFFF;stop-opacity:0.1"/>
				</linearGradient>
				<polyline class="st2" points="101.1,36.5 184.4,0 206.5,46.1 190.9,96.2 101.3,43.9 101.1,36.5 				"/>
				
					<linearGradient id="SVGID_5_" gradientUnits="userSpaceOnUse" x1="109.4763" y1="157.6796" x2="216.2333" y2="157.6796" gradientTransform="matrix(0.996 8.990000e-02 8.990000e-02 -0.996 -23.0392 199.1411)">
					<stop  offset="0" style="stop-color:#FFFFFF"/>
					<stop  offset="1" style="stop-color:#FFFFFF;stop-opacity:0.1"/>
				</linearGradient>
				<polyline class="st3" points="101.5,37.1 190.9,7.4 206.1,65.5 188.3,112.6 101.5,44.6 101.5,37.1 				"/>
				
					<linearGradient id="SVGID_6_" gradientUnits="userSpaceOnUse" x1="168.8823" y1="154.497" x2="319.5292" y2="154.497" gradientTransform="matrix(-0.8563 0 0 -1 246.2779 217)">
					<stop  offset="0" style="stop-color:#FFFFFF"/>
					<stop  offset="1" style="stop-color:#FFFFFF;stop-opacity:0.1"/>
				</linearGradient>
				<polyline class="st4" points="101.7,36.5 3.9,5.8 -27.3,46.2 -7.6,119.2 101.3,44 101.7,36.5 				"/>
				
					<linearGradient id="SVGID_7_" gradientUnits="userSpaceOnUse" x1="177.2458" y1="142.1652" x2="328.6168" y2="142.1652" gradientTransform="matrix(-0.8528 8.990000e-02 -7.700000e-02 -0.996 266.0112 199.1411)">
					<stop  offset="0" style="stop-color:#FFFFFF"/>
					<stop  offset="1" style="stop-color:#FFFFFF;stop-opacity:0.1"/>
				</linearGradient>
				<polyline class="st5" points="101.1,37.2 2,20.8 -26.8,65.6 -5,148.4 101.2,44.7 101.1,37.2 				"/>
			</g>
		</g>
	</g>
	<path class="st6" d="M71.9,215.9"/>
	<g>
		<g>
			<rect x="100.2" y="56.6" class="st7" width="3.1" height="1"/>
			<rect x="100.2" y="48.2" class="st7" width="3.1" height="1"/>
			<rect x="100.6" y="49.1" class="st7" width="2.4" height="7.5"/>
			<rect x="101.2" y="47" class="st7" width="1.1" height="1.2"/>
			<g>
				<path class="st7" d="M101.8,32c-1,0-1.9,0.2-2.8,0.6c-0.9,0.4-1.6,0.9-2.3,1.5c-0.7,0.7-1.2,1.4-1.6,2.3
					c-0.4,0.9-0.6,1.8-0.6,2.8s0.2,1.9,0.6,2.8c0.4,0.9,0.9,1.6,1.6,2.3c0.7,0.7,1.4,1.2,2.3,1.5c0.9,0.4,1.8,0.6,2.8,0.6
					c1,0,1.9-0.2,2.8-0.6c0.9-0.4,1.6-0.9,2.3-1.5c0.7-0.7,1.2-1.4,1.6-2.3c0.4-0.9,0.6-1.8,0.6-2.8s-0.2-1.9-0.6-2.8
					c-0.4-0.9-0.9-1.6-1.6-2.3c-0.7-0.7-1.4-1.2-2.3-1.5C103.7,32.2,102.8,32,101.8,32 M101.8,47.6c-1.1,0-2.2-0.2-3.3-0.7
					c-1-0.4-1.9-1-2.7-1.8s-1.4-1.7-1.8-2.7c-0.4-1-0.7-2.1-0.7-3.3s0.2-2.2,0.7-3.3c0.4-1,1-1.9,1.8-2.7s1.7-1.4,2.7-1.8
					c1-0.4,2.1-0.7,3.3-0.7c1.1,0,2.2,0.2,3.3,0.7c1,0.4,1.9,1,2.7,1.8s1.4,1.7,1.8,2.7c0.4,1,0.7,2.1,0.7,3.3s-0.2,2.2-0.7,3.3
					c-0.4,1-1,1.9-1.8,2.7s-1.7,1.4-2.7,1.8C104,47.4,102.9,47.6,101.8,47.6"/>
			</g>
			<rect x="101.8" y="56.6" class="st7" width="1.6" height="1"/>
			<polygon class="st7" points="103.4,48.2 101.8,48.2 101.8,49.1 103,49.1 103.4,49.1 			"/>
			<rect x="101.8" y="49.1" class="st7" width="1.2" height="7.5"/>
			<g>
				<path class="st7" d="M102.4,47.6c-0.2,0-0.4,0-0.6,0v0.6h0.6V47.6z"/>
				<path class="st7" d="M101.8,30.8V32c1,0,1.9,0.2,2.8,0.6c0.9,0.4,1.6,0.9,2.3,1.5c0.7,0.7,1.2,1.4,1.6,2.3
					c0.4,0.9,0.6,1.8,0.6,2.8s-0.2,1.9-0.6,2.8c-0.4,0.9-0.9,1.6-1.6,2.3c-0.7,0.7-1.4,1.2-2.3,1.5c-0.9,0.4-1.8,0.6-2.8,0.6v1.2
					c0.2,0,0.4,0,0.6,0c0.9-0.1,1.8-0.3,2.7-0.6c1-0.4,1.9-1,2.7-1.8s1.4-1.7,1.8-2.7c0.4-1,0.7-2.1,0.7-3.3s-0.2-2.2-0.7-3.3
					c-0.4-1-1-1.9-1.8-2.7s-1.7-1.4-2.7-1.8C104,31,102.9,30.8,101.8,30.8"/>
			</g>
		</g>
		<g>
			<ellipse class="st8" cx="101.8" cy="39.2" rx="7.1" ry="7"/>
			<path class="st9" d="M101.8,47.2c-4.5,0-8.1-3.6-8.1-8s3.7-8,8.1-8c4.5,0,8.1,3.6,8.1,8S106.3,47.2,101.8,47.2z M101.8,33.2
				c-3.4,0-6.2,2.7-6.2,6c0,3.3,2.8,6,6.2,6s6.2-2.7,6.2-6C107.9,35.9,105.2,33.2,101.8,33.2z"/>
		</g>
	</g>
	<g>
		<g>
			<defs>
				<path id="SVGID_8_" d="M79.3,63.1c0,0,9.8-4,22.5-4s22.6,4,22.6,4l7.4,152.8h-60L79.3,63.1z"/>
			</defs>
			<clipPath id="SVGID_9_">
				<use xlink:href="#SVGID_8_"  style="overflow:visible;"/>
			</clipPath>
			<path class="st10" d="M-12.2,120.9C-16.9,81.5,139,0.6,152,8.3c13,7.7,44.2,182.3,18.1,199.4C150.8,220.9-7.4,160.2-12.2,120.9z"
				/>
		</g>
	</g>
	<g>
		<path class="st7" d="M81.8,38.2c0,0-6.3-0.6-6.3-5.2s13.7-8.1,26.4-8.1s26.4,3.3,26.4,8.1s-6.3,5.2-6.3,5.2s2.4-1.5,2.4-4.2
			s-14.9-5-22.5-5s-22.3,2.6-22.3,5C79.6,36.4,81.8,38.2,81.8,38.2z"/>
		<path class="st7" d="M124.4,27.4c-4.9-2.5-14-4-22.6-4c-8.5,0-17.5,1.6-22.5,4l5.5-7.4l17-4.9l18.5,4.9L124.4,27.4z"/>
		<path class="st7" d="M100.3,5.9c0,0,121.5,3.7,112.8,66.9S3.5,183.7,3.5,183.7s164.4-47.4,169.1-111.1
			C177.3,8.9,100.3,5.9,100.3,5.9z"/>
		<rect x="81.6" y="30.1" class="st7" width="2.3" height="25.8"/>
		<rect x="119.8" y="30.1" class="st7" width="2.3" height="25.8"/>
		<path class="st7" d="M79.1,69.1c0,0-7.2-0.8-7.2-6.3s15.6-9.7,30-9.7s30,4,30,9.7s-7.2,6.3-7.2,6.3s2.7-1.8,2.7-5
			c0-3.2-16.9-6-25.5-6s-25.3,3.1-25.3,6C76.6,67,79.1,69.1,79.1,69.1z"/>
	</g>
</g>
</svg>
